<?xml version="1.0" encoding="utf-8"?>
<!-- Generator: Adobe Illustrator 24.0.2, SVG Export Plug-In . SVG Version: 6.00 Build 0)  -->
<svg version="1.1" id="Capa_1" xmlns="http://www.w3.org/2000/svg" xmlns:xlink="http://www.w3.org/1999/xlink" x="0px" y="0px"
	 viewBox="0 0 500 500" style="enable-background:new 0 0 500 500;" xml:space="preserve">
<style type="text/css">
	.st0{fill:#0F4BB7;}
</style>
<g>
	<g>
		<g>
			<path class="st0" d="M119.32,71.91H86.65c-13.48,8.15-24.9,12.22-48.23,15.79v26.99h36.31v83.52H31.67v35.14h122.92v-35.14
				h-35.27V71.91z"/>
			<polygon class="st0" points="234.98,167.15 294.62,167.15 294.62,130.48 234.98,130.48 234.98,104.51 305,104.51 305,67.84 
				190.37,67.84 190.37,233.35 307.59,233.35 307.59,196.69 234.98,196.69 			"/>
			<path class="st0" d="M401.98,68.86c-38.64,0-64.83,27.76-64.83,83.01s26.19,84.54,64.83,84.54c38.64,0,64.83-29.28,64.83-84.54
				S440.62,68.86,401.98,68.86z M401.98,202.8c-13.74,0-25.41-10.69-25.41-50.93s11.67-49.4,25.41-49.4s25.41,9.17,25.41,49.4
				S415.72,202.8,401.98,202.8z"/>
			<ellipse class="st0" cx="401.98" cy="151.87" rx="20.75" ry="20.37"/>
		</g>
	</g>
</g>
<g>
	<g>
		<g>
			<path class="st0" d="M95.46,367.33h21v22.92c-2.59,2.04-7.26,3.06-11.41,3.06c-24.12,0-35.79-17.32-35.79-48.38
				c0-30.05,15.04-47.87,33.45-47.87c12.19,0,18.93,4.07,25.93,10.69l24.38-26.99c-11.15-11.21-27.49-21.39-50.31-21.39
				c-43.83,0-79.35,31.07-79.35,87.09c0,56.53,35.79,84.54,79.09,84.54c21.52,0,42.27-10.19,53.68-20.37v-78.94H95.46V367.33z"/>
			<path class="st0" d="M266.1,368.86c0,14.26-4.93,24.45-19.19,24.45s-18.67-10.19-18.67-24.45V262.42h-44.6v101.35
				c0,41.25,19.19,67.22,63.27,67.22s62.24-25.97,62.24-67.22V262.42H266.1V368.86z"/>
			<path class="st0" d="M435.69,340.34v-1.02c19.71-5.09,28.53-21.39,28.53-35.65c0-32.59-28.01-41.25-63.27-41.25h-60.16v165.51
				h65.35c36.3,0,65.35-14.77,65.35-48.89C471.48,357.15,459.55,344.92,435.69,340.34z M385.38,296.03h14.52
				c14.52,0,20.75,4.07,20.75,14.26s-6.22,17.32-20.75,17.32h-14.52V296.03z M403.02,394.32h-17.63v-36.16h17.63
				c17.63,0,24.9,5.09,24.9,17.31S420.65,394.32,403.02,394.32z"/>
		</g>
	</g>
</g>
</svg>
